<?xml version="1.0" encoding="UTF-8" standalone="no"?>
<!-- Created with Inkscape (http://www.inkscape.org/) -->

<svg
   width="210mm"
   height="297mm"
   viewBox="0 0 210 297"
   version="1.1"
   id="svg5"
   xmlns="http://www.w3.org/2000/svg"
   xmlns:svg="http://www.w3.org/2000/svg">
  <defs
     id="defs2" />
  <g
     id="layer1">
    <a
       id="a12434"
       transform="translate(-120.51462,-158.65216)">
      <path
         id="path2523"
         style="fill:#ffffff;fill-opacity:1;stroke:#000000;stroke-width:0.306733;stroke-opacity:1"
         d="m 112.3932,102.36203 a 23.012106,19.056902 0 0 0 -20.746023,10.8319 21.483957,19.955811 0 0 0 -14.94069,-5.61827 21.483957,19.955811 0 0 0 -20.58221,14.25598 17.978209,12.94431 0 0 0 -4.4974,-0.41289 17.978209,12.94431 0 0 0 -17.97823,12.94443 17.978209,12.94431 0 0 0 1.42834,5.0369 14.832022,13.303874 0 0 0 -0.25993,-0.003 14.832022,13.303874 0 0 0 -14.83217,13.30409 14.832022,13.303874 0 0 0 13.27877,13.22142 14.023003,16.360168 0 0 0 -1.05368,6.19497 14.023003,16.360168 0 0 0 12.55376,16.25947 23.136774,18.306019 0 0 0 -0.44804,3.53881 23.136774,18.306019 0 0 0 23.13657,18.30585 23.136774,18.306019 0 0 0 14.36606,-3.9703 16.526266,13.030325 0 0 0 14.4911,6.76755 16.526266,13.030325 0 0 0 7.319963,-1.35702 19.831518,16.907642 0 0 0 17.08837,8.34884 19.831518,16.907642 0 0 0 16.79897,-7.93336 21.843523,16.090496 0 0 0 15.05748,4.44624 21.843523,16.090496 0 0 0 21.53925,-13.46482 14.65224,13.213983 0 0 0 5.24826,0.88005 14.65224,13.213983 0 0 0 14.65234,-13.21366 14.65224,13.213983 0 0 0 -1.4733,-5.77329 21.663742,19.416464 0 0 0 14.23789,-18.22783 21.663742,19.416464 0 0 0 -7.96902,-15.04301 16.270279,14.292676 0 0 0 2.57555,-7.69927 16.270279,14.292676 0 0 0 -15.3417,-14.26838 17.708534,18.0681 0 0 0 0.41962,-3.88968 17.708534,18.0681 0 0 0 -17.70848,-18.06815 17.708534,18.0681 0 0 0 -10.23969,3.3383 20.225483,17.888317 0 0 0 -16.72766,-7.83312 20.225483,17.888317 0 0 0 -13.37128,4.4819 23.012106,19.056902 0 0 0 -16.02279,-5.38055 z" />
    </a>
  </g>
</svg>
